HIERARCHY
ROOT hip
{
  OFFSET 0 0 0
  CHANNELS 6 Xposition Yposition Zposition Zrotation Yrotation Xrotation
  JOINT abdomen
  {
    OFFSET 0 20.6881 -0.73152
    CHANNELS 3 Zrotation Xrotation Yrotation
    JOINT chest
    {
      OFFSET 0 11.7043 -0.48768
      CHANNELS 3 Zrotation Xrotation Yrotation
      JOINT neck
      {
        OFFSET 0 22.1894 -2.19456
        CHANNELS 3 Zrotation Xrotation Yrotation
        JOINT head
        {
          OFFSET -0.24384 7.07133 1.2192
          CHANNELS 3 Zrotation Xrotation Yrotation
          JOINT leftEye
          {
            OFFSET 4.14528 8.04674 8.04672
            CHANNELS 3 Zrotation Xrotation Yrotation
            End Site
            {
              OFFSET 1 0 0
            }
          }
          JOINT rightEye
          {
            OFFSET -3.6576 8.04674 8.04672
            CHANNELS 3 Zrotation Xrotation Yrotation
            End Site
            {
              OFFSET 1 0 0
            }
          }
        }
      }
      JOINT rCollar
      {
        OFFSET -2.68224 19.2634 -4.8768
        CHANNELS 3 Zrotation Xrotation Yrotation
        JOINT rShldr
        {
          OFFSET -8.77824 -1.95073 1.46304
          CHANNELS 3 Zrotation Xrotation Yrotation
          JOINT rForeArm
          {
            OFFSET -28.1742 -1.7115 0.48768
            CHANNELS 3 Zrotation Xrotation Yrotation
            JOINT rHand
            {
              OFFSET -22.5879 0.773209 7.07136
              CHANNELS 3 Zrotation Xrotation Yrotation
              JOINT rThumb1
              {
                OFFSET -1.2192 -0.487915 3.41376
                CHANNELS 3 Zrotation Xrotation Yrotation
                JOINT rThumb2
                {
                  OFFSET -3.37035 -0.52449 3.41376
                  CHANNELS 3 Zrotation Xrotation Yrotation
                  End Site
                  {
                    OFFSET -1.78271 -1.18214 1.43049
                  }
                }
              }
              JOINT rIndex1
              {
                OFFSET -7.75947 0.938293 5.60832
                CHANNELS 3 Zrotation Xrotation Yrotation
                JOINT rIndex2
                {
                  OFFSET -2.54057 -0.884171 1.56538
                  CHANNELS 3 Zrotation Xrotation Yrotation
                  End Site
                  {
                    OFFSET -1.62519 -0.234802 1.16502
                  }
                }
              }
              JOINT rMid1
              {
                OFFSET -8.24714 1.18213 3.41376
                CHANNELS 3 Zrotation Xrotation Yrotation
                JOINT rMid2
                {
                  OFFSET -3.10165 -0.590103 1.0647
                  CHANNELS 3 Zrotation Xrotation Yrotation
                  End Site
                  {
                    OFFSET -2.48547 -0.328903 0.83742
                  }
                }
              }
              JOINT rRing1
              {
                OFFSET -8.82822 0.546677 1.51678
                CHANNELS 3 Zrotation Xrotation Yrotation
                JOINT rRing2
                {
                  OFFSET -2.60934 -0.819778 -0.0198488
                  CHANNELS 3 Zrotation Xrotation Yrotation
                  End Site
                  {
                    OFFSET -2.33842 -0.294052 0.168128
                  }
                }
              }
              JOINT rPinky1
              {
                OFFSET -8.27202 -0.0477905 -0.4584
                CHANNELS 3 Zrotation Xrotation Yrotation
                JOINT rPinky2
                {
                  OFFSET -1.82734 -0.647385 -0.700984
                  CHANNELS 3 Zrotation Xrotation Yrotation
                  End Site
                  {
                    OFFSET -1.69225 -0.51767 -0.607171
                  }
                }
              }
            }
          }
        }
      }
      JOINT lCollar
      {
        OFFSET 2.68224 19.2634 -4.8768
        CHANNELS 3 Zrotation Xrotation Yrotation
        JOINT lShldr
        {
          OFFSET 8.77824 -1.95073 1.46304
          CHANNELS 3 Zrotation Xrotation Yrotation
          JOINT lForeArm
          {
            OFFSET 28.1742 -1.7115 0.48768
            CHANNELS 3 Zrotation Xrotation Yrotation
            JOINT lHand
            {
              OFFSET 22.5879 0.773209 7.07136
              CHANNELS 3 Zrotation Xrotation Yrotation
              JOINT lThumb1
              {
                OFFSET 1.2192 -0.487915 3.41376
                CHANNELS 3 Zrotation Xrotation Yrotation
                JOINT lThumb2
                {
                  OFFSET 3.37035 -0.52449 3.41376
                  CHANNELS 3 Zrotation Xrotation Yrotation
                  End Site
                  {
                    OFFSET 1.78271 -1.18214 1.43049
                  }
                }
              }
              JOINT lIndex1
              {
                OFFSET 7.75947 0.938293 5.60832
                CHANNELS 3 Zrotation Xrotation Yrotation
                JOINT lIndex2
                {
                  OFFSET 2.54057 -0.884171 1.56538
                  CHANNELS 3 Zrotation Xrotation Yrotation
                  End Site
                  {
                    OFFSET 1.62519 -0.234802 1.16502
                  }
                }
              }
              JOINT lMid1
              {
                OFFSET 8.24714 1.18213 3.41376
                CHANNELS 3 Zrotation Xrotation Yrotation
                JOINT lMid2
                {
                  OFFSET 3.10165 -0.590103 1.0647
                  CHANNELS 3 Zrotation Xrotation Yrotation
                  End Site
                  {
                    OFFSET 2.48547 -0.328903 0.83742
                  }
                }
              }
              JOINT lRing1
              {
                OFFSET 8.82822 0.546677 1.51678
                CHANNELS 3 Zrotation Xrotation Yrotation
                JOINT lRing2
                {
                  OFFSET 2.60934 -0.819778 -0.0198488
                  CHANNELS 3 Zrotation Xrotation Yrotation
                  End Site
                  {
                    OFFSET 2.33842 -0.294052 0.168128
                  }
                }
              }
              JOINT lPinky1
              {
                OFFSET 8.27202 -0.0477905 -0.4584
                CHANNELS 3 Zrotation Xrotation Yrotation
                JOINT lPinky2
                {
                  OFFSET 1.82734 -0.647385 -0.700984
                  CHANNELS 3 Zrotation Xrotation Yrotation
                  End Site
                  {
                    OFFSET 1.69225 -0.51767 -0.607171
                  }
                }
              }
            }
          }
        }
      }
    }
  }
  JOINT rButtock
  {
    OFFSET -8.77824 4.35084 1.2192
    CHANNELS 3 Zrotation Xrotation Yrotation
    JOINT rThigh
    {
      OFFSET 0 -1.70687 -2.19456
      CHANNELS 3 Zrotation Xrotation Yrotation
      JOINT rShin
      {
        OFFSET 0 -36.8199 0.73152
        CHANNELS 3 Zrotation Xrotation Yrotation
        JOINT rFoot
        {
          OFFSET 0.73152 -45.1104 -5.12064
          CHANNELS 3 Zrotation Xrotation Yrotation
          End Site
          {
            OFFSET -1.1221 -3.69964 12.103
          }
        }
      }
    }
  }
  JOINT lButtock
  {
    OFFSET 8.77824 4.35084 1.2192
    CHANNELS 3 Zrotation Xrotation Yrotation
    JOINT lThigh
    {
      OFFSET 0 -1.70687 -2.19456
      CHANNELS 3 Zrotation Xrotation Yrotation
      JOINT lShin
      {
        OFFSET 0 -36.8199 0.73152
        CHANNELS 3 Zrotation Xrotation Yrotation
        JOINT lFoot
        {
          OFFSET -0.73152 -45.1104 -5.12064
          CHANNELS 3 Zrotation Xrotation Yrotation
          End Site
          {
            OFFSET 1.1221 -3.69964 12.103
          }
        }
      }
    }
  }
}
MOTION
Frames:	7
Frame Time:	0.00833333
0.0 0.0 0.0 0.0 0.0 0.0 0.0 0.0 0.0 0.0 0.0 0.0 0.0 0.0 0.0 0.0 0.0 0.0 0.0 0.0 0.0 0.0 0.0 0.0 0.0 0.0 0.0 0.0 0.0 0.0 0.0 0.0 0.0 0.0 0.0 0.0 0.0 0.0 0.0 0.0 0.0 0.0 0.0 0.0 0.0 0.0 0.0 0.0 0.0 0.0 0.0 0.0 0.0 0.0 0.0 0.0 0.0 0.0 0.0 0.0 0.0 0.0 0.0 0.0 0.0 0.0 0.0 0.0 0.0 0.0 0.0 0.0 0.0 0.0 0.0 0.0 0.0 0.0 0.0 0.0 0.0 0.0 0.0 0.0 0.0 0.0 0.0 0.0 0.0 0.0 0.0 0.0 0.0 0.0 0.0 0.0 0.0 0.0 0.0 0.0 0.0 0.0 0.0 0.0 0.0 0.0 0.0 0.0 0.0 0.0 0.0 0.0 0.0 0.0 0.0 0.0 0.0 0.0 0.0 0.0 0.0 0.0 0.0 0.0 0.0 0.0 0.0 0.0 0.0 0.0 0.0 0.0
-16.878 80.9452 -207.60200000000003 -0.0 -0.0 0.0 -0.0 -0.0 -0.0 0.0 0.0 -0.0 -8.062445 11.209809 -86.0143 11.735776 7.269363 86.05873 -0.0 -0.0 0.0 -0.0 -0.0 0.0 -27.420961 56.66532 29.76684 12.602464 13.829857 -2.816719 158.585659 -75.072953 155.16815 -9.458679 28.432014 1.403901 -87.917663 38.514751 49.436516 -77.496288 -2.552797 59.057794 2.325555 -3.867927 -1.259147 88.67855 -60.230328 46.203527 -0.969343 2.779591 0.553338 7.421153 -22.932726 -1.717558 -145.118943 0.185593 -179.186644 -21.065705 -74.022917 -52.700435 -136.041664 -11.44294 -133.394179 -111.603445 -42.321314 -112.979687 -0.163072 -0.990049 0.218539 0.540347 13.994801 -1.064061 -3.068419 -22.048385 -0.417453 2.825199 9.031526 0.086553 4.034931 3.931563 -0.75474 -11.56818 -14.476718 5.952539 46.208543 39.652969 -36.318179 160.474678 6.663902 -118.353993 -23.903801 -61.333833 -1.399383 165.563953 -6.44037 -140.576939 145.064528 -3.224168 178.113517 64.746967 -78.597984 96.859917 26.564207 -38.860901 25.60587 52.074576 -54.574256 51.078089 -0.0 0.0 -0.0 -0.0 -0.0 -0.0 -5.517287 5.185089 -70.178882 152.043023 -8.855046 -63.468436 -0.0 0.0 -0.0 -0.0 -0.0 -0.0 5.65445 6.518803 81.877826 -3.591711 -15.152325 -87.767834
-16.8731 80.9484 -207.58799999999997 -0.0 -0.0 0.0 -0.0 -0.0 -0.0 0.0 0.0 -0.0 -8.062445 11.209809 -86.0143 11.735776 7.269363 86.05873 -0.0 0.0 -0.0 -0.0 0.0 -0.0 -27.420961 56.66532 29.76684 12.602464 13.829857 -2.816719 158.585659 -75.072953 155.16815 -9.458679 28.432014 1.403901 -2.813987 2.754169 0.498244 23.929429 -35.932146 -13.782971 -152.105085 -18.556554 121.367907 27.737923 -12.954767 -11.903849 -0.397821 1.151575 0.223245 -166.38322 -4.420787 143.354405 -66.264309 72.868403 83.836867 10.243289 29.573843 -12.175064 -6.260853 -14.051921 -5.884706 -149.50319 12.163788 -144.446618 -0.163072 -0.990049 0.218539 0.540347 13.994801 -1.064061 -3.068419 -22.048385 -0.417453 2.825199 9.031526 0.086553 4.034931 3.931563 -0.75474 -11.56818 -14.476718 5.952539 46.208543 39.652969 -36.318179 126.212446 48.01469 -94.789544 -23.903801 -61.333833 -1.399383 175.346711 -31.151449 -140.708229 145.099691 -1.522044 178.64987 -22.127067 25.985262 5.722493 26.564207 -38.860901 25.60587 52.074576 -54.574256 51.078089 -0.0 0.0 -0.0 -0.0 0.0 -0.0 -4.919407 3.500227 -54.588129 81.278797 34.809658 -2.029967 -0.0 0.0 -0.0 -0.0 0.0 -0.0 5.612052 5.774585 75.378063 -38.940316 46.388972 -43.973424
-16.8657 80.9507 -207.575 -0.0 -0.0 0.0 -0.0 -0.0 -0.0 0.0 0.0 -0.0 -8.062445 11.209809 -86.0143 11.735776 7.269363 86.05873 -0.0 0.0 -0.0 -0.0 0.0 -0.0 -27.420961 56.66532 29.76684 -52.436606 89.05508 66.970462 5.760043 12.824341 -34.161585 171.551242 -13.954937 144.197681 -0.347438 0.342694 0.054395 -131.18314 -28.910209 115.659175 18.525687 -33.242997 -5.98089 144.346861 -50.123676 83.72539 -125.644075 49.839986 115.274123 -7.664143 33.131885 5.688523 -145.119209 0.22664 -179.199539 20.546487 -0.079733 -9.055235 -154.16448 45.105972 -148.907641 -2.325724 -12.592475 -7.890271 -0.163072 -0.990049 0.218539 0.540347 13.994801 -1.064061 -7.409202 -33.23499 -2.829397 6.509692 20.30914 -0.463725 5.433768 5.264911 -1.077842 45.163481 25.930216 -42.812671 -19.56865 -35.040283 5.986264 -9.986925 -4.143565 -4.444331 160.673322 -6.667841 -143.245105 -177.396314 -57.320211 -137.511743 69.84025 -72.122743 86.714575 -7.626302 29.704873 -11.627728 -13.634108 46.898477 -11.157961 150.474619 13.145553 141.727569 -0.0 0.0 -0.0 -0.0 0.0 -0.0 -4.919407 3.500227 -54.588129 81.278797 34.809658 -2.029967 -0.0 0.0 -0.0 -0.0 0.0 -0.0 5.612052 5.774585 75.378063 -38.940316 46.388972 -43.973424
-16.8576 80.9522 -207.563 -0.0 -0.0 0.0 -0.0 -0.0 -0.0 0.0 0.0 -0.0 -8.062445 11.209809 -86.0143 11.735776 7.269363 86.05873 -0.0 -0.0 0.0 -0.0 -0.0 0.0 -27.420961 56.66532 29.76684 -52.436606 89.05508 66.970462 5.761054 12.82761 -34.161921 171.552354 -13.951697 144.19806 178.619005 -18.760041 89.038626 -37.14 -24.74497 -0.394296 -10.571294 15.013433 6.865128 -45.947039 44.141114 23.435848 -36.036059 51.723116 29.832321 172.070123 -64.570254 139.139894 -77.742735 72.902851 95.870145 -167.710846 46.164454 -175.953714 -156.864532 55.54159 -150.329136 52.669305 78.924734 -15.604914 -0.163072 -0.990049 0.218539 0.540347 13.994801 -1.064061 -7.409202 -33.23499 -2.829397 6.509692 20.30914 -0.463725 -0.567845 -0.561452 0.084526 -25.250225 -42.470629 17.041571 138.493513 4.896353 -114.8648 55.379486 61.850815 -45.480307 161.518715 -9.304265 -143.625478 126.231823 51.391578 -118.509734 145.118941 0.185402 179.186584 -12.791292 -44.277249 18.129372 14.102891 -26.511289 13.432208 0.001881 -2.890265 -0.229766 -0.0 0.0 -0.0 -0.0 -0.0 -0.0 -5.517287 5.185089 -70.178882 152.043023 -8.855046 -63.468436 -0.0 0.0 -0.0 -0.0 -0.0 -0.0 5.65445 6.518803 81.877826 -3.591711 -15.152325 -87.767834
-16.857 80.9565 -207.552 -0.0 -0.0 0.0 -0.0 -0.0 -0.0 0.0 0.0 -0.0 -8.062445 11.209809 -86.0143 11.735776 7.269363 86.05873 -0.0 -0.0 0.0 -0.0 -0.0 0.0 -27.420961 56.66532 29.76684 12.602464 13.829857 -2.816719 158.585659 -75.072953 155.16815 -9.458679 28.432014 1.403901 176.505527 -20.695006 88.628526 -49.553685 -10.449284 4.339288 2.325555 -3.867927 -1.259147 8.96444 -11.734327 -0.065556 -0.571049 1.648356 0.322148 -166.783806 -5.665829 143.511721 -31.710267 -66.108601 -46.284392 -130.037031 56.55225 143.936082 54.223266 87.258986 -14.504216 0.305653 -2.294623 -4.268454 -0.163072 -0.990049 0.218539 0.540347 13.994801 -1.064061 -3.068419 -22.048385 -0.417453 2.825199 9.031526 0.086553 4.034931 3.931563 -0.75474 -11.56818 -14.476718 5.952539 46.208543 39.652969 -36.318179 160.474678 6.663902 -118.353993 -23.903801 -61.333833 -1.399383 165.563953 -6.44037 -140.576939 145.064528 -3.224168 178.113517 64.746967 -78.597984 96.859917 26.564207 -38.860901 25.60587 52.074576 -54.574256 51.078089 -0.0 0.0 -0.0 -0.0 -0.0 -0.0 -5.517287 5.185089 -70.178882 152.043023 -8.855046 -63.468436 -0.0 0.0 -0.0 -0.0 -0.0 -0.0 5.65445 6.518803 81.877826 -3.591711 -15.152325 -87.767834
-16.8478 80.9491 -207.54000000000002 -0.0 -0.0 0.0 -0.0 -0.0 -0.0 0.0 0.0 -0.0 -8.062445 11.209809 -86.0143 11.735776 7.269363 86.05873 -0.0 0.0 -0.0 -0.0 0.0 -0.0 -27.420961 56.66532 29.76684 12.602464 13.829857 -2.816719 158.585659 -75.072953 155.16815 -9.458679 28.432014 1.403901 -15.47521 14.198813 4.248078 -122.171602 -19.986071 105.008314 -149.817117 -14.317182 120.600658 -162.948658 -39.711211 118.814275 -0.571049 1.648356 0.322148 143.078817 -74.366273 114.424653 -145.099706 -1.521107 -178.650165 -143.590597 -14.005173 -177.569004 -132.936262 -17.325526 -130.433769 -16.195152 -36.225722 -19.873656 -0.163072 -0.990049 0.218539 0.540347 13.994801 -1.064061 -3.068419 -22.048385 -0.417453 2.825199 9.031526 0.086553 4.034931 3.931563 -0.75474 -11.56818 -14.476718 5.952539 46.208543 39.652969 -36.318179 126.212446 48.01469 -94.789544 -23.903801 -61.333833 -1.399383 175.346711 -31.151449 -140.708229 145.099691 -1.522044 178.64987 -22.127067 25.985262 5.722493 26.564207 -38.860901 25.60587 52.074576 -54.574256 51.078089 -0.0 0.0 -0.0 -0.0 0.0 -0.0 -4.919407 3.500227 -54.588129 81.278797 34.809658 -2.029967 -0.0 0.0 -0.0 -0.0 0.0 -0.0 5.612052 5.774585 75.378063 -38.940316 46.388972 -43.973424
